<svg xmlns="http://www.w3.org/2000/svg" viewBox="0 0 1200 600" preserveAspectRatio="xMidYMid slice" role="img" aria-label="Low-volatility portfolio candlestick chart with moving-average line">
  <defs>
    <linearGradient id="bg" x1="0" y1="0" x2="0" y2="1">
      <stop offset="0" stop-color="#0c1226"/>
      <stop offset="1" stop-color="#070b18"/>
    </linearGradient>
    <linearGradient id="nav" x1="0" y1="0" x2="1" y2="0">
      <stop offset="0" stop-color="#38bdf8"/>
      <stop offset="1" stop-color="#22d3ee"/>
    </linearGradient>
  </defs>
  <rect width="1200" height="600" fill="url(#bg)"/>
  <g stroke="#1e2742" stroke-width="1">
    <line x1="0" y1="160" x2="1200" y2="160"/>
    <line x1="0" y1="260" x2="1200" y2="260"/>
    <line x1="0" y1="360" x2="1200" y2="360"/>
    <line x1="0" y1="460" x2="1200" y2="460"/>
  </g>
  <text x="150" y="62" fill="#6b7aa0" font-family="ui-monospace, SFMono-Regular, Menlo, monospace" font-size="20" letter-spacing="3">PORTFOLIO NAV · 1-WEEK HOLD</text>
  <g fill="#5f6f93" font-family="ui-monospace, SFMono-Regular, Menlo, monospace" font-size="22" text-anchor="end">
    <text x="1044" y="168">$1.03M</text>
    <text x="1044" y="368">$1.00M</text>
  </g>
  <g>
    <g stroke="#fb7185" fill="#fb7185"><line x1="72" y1="375.7" x2="72" y2="412.9" stroke-width="2"/><rect x="61.5" y="395.3" width="21.0" height="10.1" rx="1.5"/></g>
    <g stroke="#fb7185" fill="#fb7185"><line x1="100" y1="374.0" x2="100" y2="457.0" stroke-width="2"/><rect x="89.5" y="405.3" width="21.0" height="41.7" rx="1.5"/></g>
    <g stroke="#34d399" fill="#34d399"><line x1="128" y1="383.7" x2="128" y2="476.0" stroke-width="2"/><rect x="117.5" y="421.8" width="21.0" height="25.3" rx="1.5"/></g>
    <g stroke="#fb7185" fill="#fb7185"><line x1="156" y1="403.1" x2="156" y2="474.9" stroke-width="2"/><rect x="145.5" y="421.8" width="21.0" height="29.4" rx="1.5"/></g>
    <g stroke="#34d399" fill="#34d399"><line x1="184" y1="411.2" x2="184" y2="465.6" stroke-width="2"/><rect x="173.5" y="443.1" width="21.0" height="8.1" rx="1.5"/></g>
    <g stroke="#34d399" fill="#34d399"><line x1="212" y1="364.1" x2="212" y2="459.1" stroke-width="2"/><rect x="201.5" y="393.9" width="21.0" height="49.2" rx="1.5"/></g>
    <g stroke="#fb7185" fill="#fb7185"><line x1="240" y1="385.6" x2="240" y2="439.8" stroke-width="2"/><rect x="229.5" y="393.9" width="21.0" height="22.2" rx="1.5"/></g>
    <g stroke="#fb7185" fill="#fb7185"><line x1="268" y1="396.4" x2="268" y2="469.0" stroke-width="2"/><rect x="257.5" y="416.1" width="21.0" height="15.6" rx="1.5"/></g>
    <g stroke="#34d399" fill="#34d399"><line x1="296" y1="410.1" x2="296" y2="458.2" stroke-width="2"/><rect x="285.5" y="424.5" width="21.0" height="7.2" rx="1.5"/></g>
    <g stroke="#fb7185" fill="#fb7185"><line x1="324" y1="396.5" x2="324" y2="454.3" stroke-width="2"/><rect x="313.5" y="424.5" width="21.0" height="8.4" rx="1.5"/></g>
    <g stroke="#34d399" fill="#34d399"><line x1="352" y1="393.5" x2="352" y2="442.7" stroke-width="2"/><rect x="341.5" y="417.9" width="21.0" height="14.9" rx="1.5"/></g>
    <g stroke="#fb7185" fill="#fb7185"><line x1="380" y1="409.9" x2="380" y2="452.6" stroke-width="2"/><rect x="369.5" y="417.9" width="21.0" height="6.4" rx="1.5"/></g>
    <g stroke="#34d399" fill="#34d399"><line x1="408" y1="396.5" x2="408" y2="435.1" stroke-width="2"/><rect x="397.5" y="405.5" width="21.0" height="18.8" rx="1.5"/></g>
    <g stroke="#34d399" fill="#34d399"><line x1="436" y1="392.9" x2="436" y2="430.6" stroke-width="2"/><rect x="425.5" y="405.1" width="21.0" height="2.0" rx="1.5"/></g>
    <g stroke="#fb7185" fill="#fb7185"><line x1="464" y1="379.4" x2="464" y2="445.2" stroke-width="2"/><rect x="453.5" y="405.1" width="21.0" height="29.6" rx="1.5"/></g>
    <g stroke="#34d399" fill="#34d399"><line x1="492" y1="405.6" x2="492" y2="450.4" stroke-width="2"/><rect x="481.5" y="421.4" width="21.0" height="13.3" rx="1.5"/></g>
    <g stroke="#34d399" fill="#34d399"><line x1="520" y1="355.1" x2="520" y2="459.0" stroke-width="2"/><rect x="509.5" y="391.3" width="21.0" height="30.1" rx="1.5"/></g>
    <g stroke="#34d399" fill="#34d399"><line x1="548" y1="329.3" x2="548" y2="411.4" stroke-width="2"/><rect x="537.5" y="347.6" width="21.0" height="43.6" rx="1.5"/></g>
    <g stroke="#34d399" fill="#34d399"><line x1="576" y1="323.0" x2="576" y2="357.7" stroke-width="2"/><rect x="565.5" y="345.7" width="21.0" height="2.0" rx="1.5"/></g>
    <g stroke="#fb7185" fill="#fb7185"><line x1="604" y1="324.6" x2="604" y2="385.3" stroke-width="2"/><rect x="593.5" y="345.7" width="21.0" height="29.8" rx="1.5"/></g>
    <g stroke="#fb7185" fill="#fb7185"><line x1="632" y1="345.4" x2="632" y2="411.5" stroke-width="2"/><rect x="621.5" y="375.5" width="21.0" height="18.0" rx="1.5"/></g>
    <g stroke="#34d399" fill="#34d399"><line x1="660" y1="366.3" x2="660" y2="404.2" stroke-width="2"/><rect x="649.5" y="385.2" width="21.0" height="8.2" rx="1.5"/></g>
    <g stroke="#fb7185" fill="#fb7185"><line x1="688" y1="356.9" x2="688" y2="431.3" stroke-width="2"/><rect x="677.5" y="385.2" width="21.0" height="33.4" rx="1.5"/></g>
    <g stroke="#34d399" fill="#34d399"><line x1="716" y1="358.1" x2="716" y2="440.0" stroke-width="2"/><rect x="705.5" y="372.1" width="21.0" height="46.5" rx="1.5"/></g>
    <g stroke="#34d399" fill="#34d399"><line x1="744" y1="332.7" x2="744" y2="390.0" stroke-width="2"/><rect x="733.5" y="341.0" width="21.0" height="31.1" rx="1.5"/></g>
    <g stroke="#34d399" fill="#34d399"><line x1="772" y1="276.4" x2="772" y2="369.0" stroke-width="2"/><rect x="761.5" y="292.9" width="21.0" height="48.0" rx="1.5"/></g>
    <g stroke="#34d399" fill="#34d399"><line x1="800" y1="214.8" x2="800" y2="320.2" stroke-width="2"/><rect x="789.5" y="226.5" width="21.0" height="66.4" rx="1.5"/></g>
    <g stroke="#34d399" fill="#34d399"><line x1="828" y1="167.2" x2="828" y2="251.0" stroke-width="2"/><rect x="817.5" y="178.0" width="21.0" height="48.5" rx="1.5"/></g>
    <g stroke="#34d399" fill="#34d399"><line x1="856" y1="160.7" x2="856" y2="193.5" stroke-width="2"/><rect x="845.5" y="168.7" width="21.0" height="9.3" rx="1.5"/></g>
    <g stroke="#fb7185" fill="#fb7185"><line x1="884" y1="132.0" x2="884" y2="203.7" stroke-width="2"/><rect x="873.5" y="168.7" width="21.0" height="16.1" rx="1.5"/></g>
    <g stroke="#fb7185" fill="#fb7185"><line x1="912" y1="162.9" x2="912" y2="217.5" stroke-width="2"/><rect x="901.5" y="184.8" width="21.0" height="4.7" rx="1.5"/></g>
    <g stroke="#34d399" fill="#34d399"><line x1="940" y1="162.4" x2="940" y2="206.0" stroke-width="2"/><rect x="929.5" y="187.8" width="21.0" height="2.0" rx="1.5"/></g>
    <g stroke="#fb7185" fill="#fb7185"><line x1="968" y1="159.6" x2="968" y2="233.9" stroke-width="2"/><rect x="957.5" y="187.8" width="21.0" height="31.8" rx="1.5"/></g>
    <g stroke="#fb7185" fill="#fb7185"><line x1="996" y1="192.8" x2="996" y2="272.5" stroke-width="2"/><rect x="985.5" y="219.6" width="21.0" height="37.5" rx="1.5"/></g>
    <g stroke="#fb7185" fill="#fb7185"><line x1="1024" y1="225.9" x2="1024" y2="276.5" stroke-width="2"/><rect x="1013.5" y="257.1" width="21.0" height="10.0" rx="1.5"/></g>
    <g stroke="#34d399" fill="#34d399"><line x1="1052" y1="223.3" x2="1052" y2="301.3" stroke-width="2"/><rect x="1041.5" y="258.7" width="21.0" height="8.5" rx="1.5"/></g>
    <g stroke="#fb7185" fill="#fb7185"><line x1="1080" y1="236.4" x2="1080" y2="300.1" stroke-width="2"/><rect x="1069.5" y="258.7" width="21.0" height="3.2" rx="1.5"/></g>
    <g stroke="#fb7185" fill="#fb7185"><line x1="1108" y1="224.6" x2="1108" y2="313.5" stroke-width="2"/><rect x="1097.5" y="261.8" width="21.0" height="19.9" rx="1.5"/></g>
  </g>
  <polyline fill="none" stroke="url(#nav)" stroke-width="3" stroke-linejoin="round" stroke-linecap="round" opacity="0.92" points="72.0,405.3 100.0,426.2 128.0,424.7 156.0,431.3 184.0,433.7 212.0,431.4 240.0,425.2 268.0,427.2 296.0,421.8 324.0,419.8 352.0,424.6 380.0,426.2 408.0,421.0 436.0,417.1 464.0,417.5 492.0,418.2 520.0,411.6 548.0,400.0 576.0,388.2 604.0,376.3 632.0,370.7 660.0,369.5 688.0,383.7 716.0,389.0 744.0,382.1 772.0,362.0 800.0,330.2 828.0,282.1 856.0,241.4 884.0,210.2 912.0,189.5 940.0,181.7 968.0,190.1 996.0,207.8 1024.0,224.2 1052.0,238.1 1080.0,252.9 1108.0,265.3"/>
</svg>
